<?xml version="1.0" encoding="utf-8"?>
<!-- Generator: Adobe Illustrator 22.0.1, SVG Export Plug-In . SVG Version: 6.00 Build 0)  -->
<svg version="1.1" id="Ebene_1" xmlns="http://www.w3.org/2000/svg" xmlns:xlink="http://www.w3.org/1999/xlink" x="0px" y="0px"
	 viewBox="0 0 66.8 52.1" style="enable-background:new 0 0 66.8 52.1;" xml:space="preserve">
<g id="Dibujo">
	<g>
		<path d="M53.6,32.3c0.9-1.9,1.4-4,1.4-6.2c0-7.7-6.3-14-14-14c-4.6,0-8.9,2.3-11.5,6c-0.2,0-0.3,0-0.5,0c-7.7,0-14.2,5-16.3,12.2
			c-0.6-0.1-1.2-0.2-1.7-0.2c-6.1,0-11,4.9-11,11s4.9,11,11,11h36c6.1,0,11-4.9,11-11C58,37.5,56.2,34.3,53.6,32.3z M41,16.1
			c5.5,0,10,4.5,10,10c0,1.5-0.4,3-1,4.4c-0.9-0.3-1.9-0.4-3-0.4c-0.5,0-1.1,0.1-1.7,0.2c-1.6-5.5-5.9-9.7-11.2-11.4
			C35.9,17.1,38.4,16.1,41,16.1z M47,48.1H11c-3.9,0-7-3.1-7-7s3.1-7,7-7c0.3,0,0.7,0.1,1.2,0.2v1.8c0,1.1,0.9,2,2,2s2-0.9,2-2v-3.2
			c1.1-6.3,6.4-10.8,12.8-10.8c6.4,0,11.7,4.5,12.8,10.8v3.2c0,1.1,0.9,2,2,2s2-0.9,2-2v-1.8c0.5-0.1,0.9-0.2,1.2-0.2
			c3.9,0,7,3.1,7,7S50.9,48.1,47,48.1z"/>
		<path d="M41,8.1c1.1,0,2-0.9,2-2v-4c0-1.1-0.9-2-2-2c-1.1,0-2,0.9-2,2v4C39,7.2,39.9,8.1,41,8.1z"/>
		<path d="M65,24.1h-4c-1.1,0-2,0.9-2,2s0.9,2,2,2h4c1.1,0,2-0.9,2-2S66.1,24.1,65,24.1z"/>
		<path d="M55.1,13.9c0.5,0,1-0.2,1.4-0.6l2.8-2.8c0.8-0.8,0.8-2,0-2.8c-0.8-0.8-2-0.8-2.8,0l-2.8,2.8c-0.8,0.8-0.8,2,0,2.8
			C54.1,13.7,54.6,13.9,55.1,13.9z"/>
		<path d="M25.4,13.4c0.4,0.4,0.9,0.6,1.4,0.6s1-0.2,1.4-0.6c0.8-0.8,0.8-2,0-2.8l-2.8-2.8c-0.8-0.8-2-0.8-2.8,0s-0.8,2,0,2.8
			L25.4,13.4z"/>
	</g>
</g>
</svg>
